<svg width="199" height="27" viewBox="0 0 199 27" fill="none" xmlns="http://www.w3.org/2000/svg">
<path d="M6.61688 21.872L0.120875 14.8L6.61688 7.728H13.4969L6.96888 14.8L13.4969 21.872H6.61688ZM16.8179 17.04C16.8179 15.2053 17.1592 13.5947 17.8419 12.208C18.5459 10.8213 19.4952 9.75467 20.6899 9.008C21.8845 8.26133 23.2179 7.888 24.6899 7.888C25.8632 7.888 26.9299 8.13333 27.8899 8.624C28.8712 9.11467 29.6392 9.776 30.1939 10.608V2.32H35.6659V26H30.1939V23.44C29.6819 24.2933 28.9459 24.976 27.9859 25.488C27.0472 26 25.9485 26.256 24.6899 26.256C23.2179 26.256 21.8845 25.8827 20.6899 25.136C19.4952 24.368 18.5459 23.2907 17.8419 21.904C17.1592 20.496 16.8179 18.8747 16.8179 17.04ZM30.1939 17.072C30.1939 15.7067 29.8099 14.6293 29.0419 13.84C28.2952 13.0507 27.3779 12.656 26.2899 12.656C25.2019 12.656 24.2739 13.0507 23.5059 13.84C22.7592 14.608 22.3859 15.6747 22.3859 17.04C22.3859 18.4053 22.7592 19.4933 23.5059 20.304C24.2739 21.0933 25.2019 21.488 26.2899 21.488C27.3779 21.488 28.2952 21.0933 29.0419 20.304C29.8099 19.5147 30.1939 18.4373 30.1939 17.072ZM42.3766 6.288C41.4166 6.288 40.6273 6.01067 40.0086 5.456C39.4113 4.88 39.1126 4.176 39.1126 3.344C39.1126 2.49067 39.4113 1.78667 40.0086 1.232C40.6273 0.655998 41.4166 0.367998 42.3766 0.367998C43.3153 0.367998 44.0833 0.655998 44.6806 1.232C45.2993 1.78667 45.6086 2.49067 45.6086 3.344C45.6086 4.176 45.2993 4.88 44.6806 5.456C44.0833 6.01067 43.3153 6.288 42.3766 6.288ZM45.0966 8.144V26H39.6246V8.144H45.0966ZM57.0941 20.88L60.9661 8.144H66.7901L60.4541 26H53.7021L47.3661 8.144H53.2221L57.0941 20.88Z" fill="#6700EE"/>
<path d="M74.7866 17.072C74.7866 15.216 75.16 13.5947 75.9066 12.208C76.6746 10.8213 77.7306 9.75467 79.0746 9.008C80.44 8.26133 81.9973 7.888 83.7466 7.888C85.9866 7.888 87.8533 8.47467 89.3466 9.648C90.8613 10.8213 91.8533 12.4747 92.3226 14.608H86.4986C86.008 13.2427 85.0586 12.56 83.6506 12.56C82.648 12.56 81.848 12.9547 81.2506 13.744C80.6533 14.512 80.3546 15.6213 80.3546 17.072C80.3546 18.5227 80.6533 19.6427 81.2506 20.432C81.848 21.2 82.648 21.584 83.6506 21.584C85.0586 21.584 86.008 20.9013 86.4986 19.536H92.3226C91.8533 21.6267 90.8613 23.2693 89.3466 24.464C87.832 25.6587 85.9653 26.256 83.7466 26.256C81.9973 26.256 80.44 25.8827 79.0746 25.136C77.7306 24.3893 76.6746 23.3227 75.9066 21.936C75.16 20.5493 74.7866 18.928 74.7866 17.072ZM100.722 2.32V26H95.2496V2.32H100.722ZM103.599 17.04C103.599 15.2053 103.94 13.5947 104.623 12.208C105.327 10.8213 106.276 9.75467 107.471 9.008C108.666 8.26133 109.999 7.888 111.471 7.888C112.73 7.888 113.828 8.144 114.767 8.656C115.727 9.168 116.463 9.84 116.975 10.672V8.144H122.447V26H116.975V23.472C116.442 24.304 115.695 24.976 114.735 25.488C113.796 26 112.698 26.256 111.439 26.256C109.988 26.256 108.666 25.8827 107.471 25.136C106.276 24.368 105.327 23.2907 104.623 21.904C103.94 20.496 103.599 18.8747 103.599 17.04ZM116.975 17.072C116.975 15.7067 116.591 14.6293 115.823 13.84C115.076 13.0507 114.159 12.656 113.071 12.656C111.983 12.656 111.055 13.0507 110.287 13.84C109.54 14.608 109.167 15.6747 109.167 17.04C109.167 18.4053 109.54 19.4933 110.287 20.304C111.055 21.0933 111.983 21.488 113.071 21.488C114.159 21.488 115.076 21.0933 115.823 20.304C116.591 19.5147 116.975 18.4373 116.975 17.072ZM133.67 26.256C132.113 26.256 130.726 25.9893 129.51 25.456C128.294 24.9227 127.334 24.1973 126.63 23.28C125.926 22.3413 125.531 21.296 125.446 20.144H130.854C130.918 20.7627 131.206 21.264 131.718 21.648C132.23 22.032 132.859 22.224 133.606 22.224C134.289 22.224 134.811 22.096 135.174 21.84C135.558 21.5627 135.75 21.2107 135.75 20.784C135.75 20.272 135.483 19.8987 134.95 19.664C134.417 19.408 133.553 19.1307 132.358 18.832C131.078 18.5333 130.011 18.224 129.158 17.904C128.305 17.5627 127.569 17.04 126.95 16.336C126.331 15.6107 126.022 14.64 126.022 13.424C126.022 12.4 126.299 11.472 126.854 10.64C127.43 9.78667 128.262 9.11467 129.35 8.624C130.459 8.13333 131.771 7.888 133.286 7.888C135.526 7.888 137.286 8.44267 138.566 9.552C139.867 10.6613 140.614 12.1333 140.806 13.968H135.75C135.665 13.3493 135.387 12.8587 134.918 12.496C134.47 12.1333 133.873 11.952 133.126 11.952C132.486 11.952 131.995 12.08 131.654 12.336C131.313 12.5707 131.142 12.9013 131.142 13.328C131.142 13.84 131.409 14.224 131.942 14.48C132.497 14.736 133.35 14.992 134.502 15.248C135.825 15.5893 136.902 15.9307 137.734 16.272C138.566 16.592 139.291 17.1253 139.91 17.872C140.55 18.5973 140.881 19.5787 140.902 20.816C140.902 21.8613 140.603 22.8 140.006 23.632C139.43 24.4427 138.587 25.0827 137.478 25.552C136.39 26.0213 135.121 26.256 133.67 26.256ZM151.514 26.256C149.956 26.256 148.57 25.9893 147.354 25.456C146.138 24.9227 145.178 24.1973 144.474 23.28C143.77 22.3413 143.375 21.296 143.29 20.144H148.698C148.762 20.7627 149.05 21.264 149.562 21.648C150.074 22.032 150.703 22.224 151.45 22.224C152.132 22.224 152.655 22.096 153.018 21.84C153.402 21.5627 153.594 21.2107 153.594 20.784C153.594 20.272 153.327 19.8987 152.794 19.664C152.26 19.408 151.396 19.1307 150.202 18.832C148.922 18.5333 147.855 18.224 147.002 17.904C146.148 17.5627 145.412 17.04 144.794 16.336C144.175 15.6107 143.866 14.64 143.866 13.424C143.866 12.4 144.143 11.472 144.698 10.64C145.274 9.78667 146.106 9.11467 147.194 8.624C148.303 8.13333 149.615 7.888 151.13 7.888C153.37 7.888 155.13 8.44267 156.41 9.552C157.711 10.6613 158.458 12.1333 158.65 13.968H153.594C153.508 13.3493 153.231 12.8587 152.762 12.496C152.314 12.1333 151.716 11.952 150.97 11.952C150.33 11.952 149.839 12.08 149.498 12.336C149.156 12.5707 148.986 12.9013 148.986 13.328C148.986 13.84 149.252 14.224 149.786 14.48C150.34 14.736 151.194 14.992 152.346 15.248C153.668 15.5893 154.746 15.9307 155.578 16.272C156.41 16.592 157.135 17.1253 157.754 17.872C158.394 18.5973 158.724 19.5787 158.746 20.816C158.746 21.8613 158.447 22.8 157.85 23.632C157.274 24.4427 156.431 25.0827 155.322 25.552C154.234 26.0213 152.964 26.256 151.514 26.256ZM180.205 8.304V13.136H162.285V8.304H180.205ZM180.205 16.464V21.296H162.285V16.464H180.205ZM185.623 3.536H191.223L187.639 12.112H183.959L185.623 3.536ZM192.887 3.536H198.487L194.903 12.112H191.223L192.887 3.536Z" fill="#8B8B8B"/>
</svg>
