<svg width="32" height="20" viewBox="0 0 32 20" fill="none" xmlns="http://www.w3.org/2000/svg">
<path d="M13.0215 8.89247C14.7311 8.07526 15.6236 6.8387 15.6236 4.91397C15.6236 1.11827 12.7957 0.193542 9.53221 0.193542H0.54834V19.2473H9.7849C13.2473 19.2473 16.5 17.586 16.5 13.715C16.5 11.3226 15.3655 9.55376 13.0215 8.89247ZM4.73651 3.44623H8.66662C10.1774 3.44623 11.5376 3.87096 11.5376 5.62365C11.5376 7.24193 10.4784 7.89247 8.98382 7.89247H4.73651V3.44623ZM9.21501 16.0107H4.73651V10.7634H9.30103C11.1451 10.7634 12.3118 11.5323 12.3118 13.4839C12.3118 15.4086 10.9193 16.0107 9.21501 16.0107ZM28.4892 3.06989H20.7634V1.19354H28.4892V3.06989ZM31.5161 12.5484C31.5161 8.46774 29.129 5.06451 24.801 5.06451C20.5967 5.06451 17.7419 8.2258 17.7419 12.3656C17.7419 16.6613 20.4462 19.6075 24.801 19.6075C28.0967 19.6075 30.2311 18.1237 31.258 14.9677H27.9139C27.5537 16.1452 26.0698 16.7688 24.9193 16.7688C22.6989 16.7688 21.5322 15.4677 21.5322 13.2581H31.4838C31.5 13.0323 31.5161 12.7903 31.5161 12.5484ZM21.5376 10.871C21.6612 9.05913 22.8655 7.92472 24.6827 7.92472C26.586 7.92472 27.543 9.043 27.7043 10.871H21.5376Z" fill="black"/>
</svg>
