<svg width="133" height="30" viewBox="0 0 133 30" fill="none" xmlns="http://www.w3.org/2000/svg">
<path d="M62.0215 14.8925C63.7312 14.0753 64.6237 12.8387 64.6237 10.914C64.6237 7.11827 61.7957 6.19354 58.5323 6.19354H49.5484V25.2473H58.785C62.2473 25.2473 65.5 23.586 65.5 19.715C65.5 17.3226 64.3656 15.5538 62.0215 14.8925ZM53.7366 9.44623H57.6667C59.1774 9.44623 60.5376 9.87096 60.5376 11.6236C60.5376 13.2419 59.4785 13.8925 57.9839 13.8925H53.7366V9.44623ZM58.2151 22.0107H53.7366V16.7634H58.3011C60.1452 16.7634 61.3118 17.5323 61.3118 19.4839C61.3118 21.4086 59.9194 22.0107 58.2151 22.0107ZM77.4893 9.06989H69.7635V7.19354H77.4893V9.06989ZM80.5161 18.5484C80.5161 14.4677 78.129 11.0645 73.8011 11.0645C69.5968 11.0645 66.7419 14.2258 66.7419 18.3656C66.7419 22.6613 69.4462 25.6075 73.8011 25.6075C77.0968 25.6075 79.2312 24.1237 80.2581 20.9677H76.914C76.5538 22.1452 75.0699 22.7688 73.9194 22.7688C71.6989 22.7688 70.5323 21.4677 70.5323 19.2581H80.4839C80.5 19.0323 80.5161 18.7903 80.5161 18.5484ZM70.5376 16.871C70.6613 15.0591 71.8656 13.9247 73.6828 13.9247C75.586 13.9247 76.543 15.043 76.7043 16.871H70.5376Z" fill="black"/>
<path d="M13.559 9.08074C9.7122 9.08074 6.60937 12.1836 6.60937 16.0303C6.60937 19.8771 9.7122 22.9799 13.559 22.9799C17.4057 22.9799 20.5086 19.8771 20.5086 16.0303C20.5086 12.1836 17.4057 9.08074 13.559 9.08074ZM13.559 20.5485C11.0731 20.5485 9.04083 18.5223 9.04083 16.0303C9.04083 13.5384 11.067 11.5122 13.559 11.5122C16.0509 11.5122 18.0771 13.5384 18.0771 16.0303C18.0771 18.5223 16.0449 20.5485 13.559 20.5485ZM22.4138 8.79647C22.4138 9.69768 21.688 10.4174 20.7928 10.4174C19.8916 10.4174 19.1719 9.69163 19.1719 8.79647C19.1719 7.90131 19.8977 7.1755 20.7928 7.1755C21.688 7.1755 22.4138 7.90131 22.4138 8.79647ZM27.0166 10.4416C26.9138 8.27026 26.4178 6.34687 24.8271 4.7622C23.2424 3.17752 21.3191 2.68155 19.1477 2.57268C16.9098 2.44566 10.2021 2.44566 7.96421 2.57268C5.79889 2.6755 3.8755 3.17147 2.28478 4.75615C0.694053 6.34082 0.204133 8.26421 0.0952621 10.4356C-0.031754 12.6735 -0.031754 19.3811 0.0952621 21.619C0.198085 23.7904 0.694053 25.7138 2.28478 27.2985C3.8755 28.8832 5.79284 29.3791 7.96421 29.488C10.2021 29.615 16.9098 29.615 19.1477 29.488C21.3191 29.3852 23.2424 28.8892 24.8271 27.2985C26.4118 25.7138 26.9078 23.7904 27.0166 21.619C27.1437 19.3811 27.1437 12.6795 27.0166 10.4416ZM24.1255 24.0203C23.6537 25.2057 22.7404 26.1191 21.5489 26.5969C19.7646 27.3045 15.5307 27.1412 13.559 27.1412C11.5872 27.1412 7.34728 27.2985 5.56905 26.5969C4.38357 26.1251 3.47026 25.2118 2.99244 24.0203C2.28478 22.236 2.44808 18.0021 2.44808 16.0303C2.44808 14.0586 2.29083 9.81865 2.99244 8.04042C3.46421 6.85494 4.37752 5.94163 5.56905 5.46381C7.35333 4.75615 11.5872 4.91945 13.559 4.91945C15.5307 4.91945 19.7707 4.76219 21.5489 5.46381C22.7344 5.93558 23.6477 6.84889 24.1255 8.04042C24.8332 9.8247 24.6699 14.0586 24.6699 16.0303C24.6699 18.0021 24.8332 22.242 24.1255 24.0203Z" fill="black"/>
<path d="M117.813 0C109.542 0 102.813 6.72895 102.813 15C102.813 23.271 109.542 30 117.813 30C126.084 30 132.813 23.271 132.813 15C132.813 6.72895 126.084 0 117.813 0ZM127.73 6.9173C129.515 9.0975 130.595 11.8744 130.624 14.8984C130.201 14.8091 125.965 13.9499 121.702 14.4861C121.354 13.6368 121.026 12.8897 120.576 11.9691C125.313 10.035 127.46 7.28268 127.73 6.9173ZM126.306 5.43569C126.076 5.76393 124.147 8.35621 119.591 10.0639C117.492 6.20643 115.165 3.03756 114.81 2.56337C118.874 1.58395 123.155 2.64018 126.306 5.43569ZM112.366 3.4246C112.704 3.88784 114.993 7.06064 117.116 10.8344C111.123 12.4259 105.844 12.403 105.271 12.3954C106.102 8.41966 108.781 5.1153 112.366 3.4246ZM105.001 15.0195C105.001 14.8885 105.003 14.7581 105.007 14.628C105.568 14.6395 111.776 14.7195 118.175 12.8047C118.542 13.5225 118.892 14.2511 119.214 14.979C114.581 16.284 110.371 20.031 108.294 23.5862C106.248 21.3148 105.001 18.3103 105.001 15.0195ZM109.949 25.1272C111.287 22.3913 114.919 18.8597 120.084 17.0976C121.883 21.772 122.627 25.6895 122.818 26.8136C118.698 28.5684 113.744 28.087 109.949 25.1272ZM124.972 25.6406C124.84 24.8612 124.158 21.1106 122.483 16.5056C126.497 15.8629 130.025 16.9149 130.463 17.0532C129.892 20.6182 127.846 23.697 124.972 25.6406Z" fill="black"/>
</svg>
