<svg width="31" height="30" viewBox="0 0 31 30" fill="none" xmlns="http://www.w3.org/2000/svg">
<path d="M15.8129 0C7.54182 0 0.812866 6.72895 0.812866 15C0.812866 23.271 7.54182 30 15.8129 30C24.0839 30 30.8129 23.271 30.8129 15C30.8129 6.72895 24.0839 0 15.8129 0ZM25.7304 6.9173C27.5149 9.0975 28.5955 11.8744 28.6237 14.8984C28.2012 14.8091 23.9653 13.9499 19.7022 14.4861C19.3543 13.6368 19.0259 12.8897 18.5761 11.9691C23.3133 10.035 25.4603 7.28268 25.7304 6.9173ZM24.3061 5.43569C24.0756 5.76393 22.147 8.35621 17.5911 10.0639C15.4916 6.20643 13.1646 3.03756 12.8104 2.56337C16.8735 1.58395 21.1552 2.64018 24.3061 5.43569ZM10.3657 3.4246C10.7036 3.88784 12.993 7.06064 15.116 10.8344C9.12281 12.4259 3.8442 12.403 3.27117 12.3954C4.10198 8.41966 6.78129 5.1153 10.3657 3.4246ZM3.00057 15.0195C3.00057 14.8885 3.00317 14.7581 3.0071 14.628C3.56766 14.6395 9.77645 14.7195 16.1748 12.8047C16.5416 13.5225 16.892 14.2511 17.2136 14.979C12.5805 16.284 8.37117 20.031 6.29434 23.5862C4.24799 21.3148 3.00057 18.3103 3.00057 15.0195ZM7.94857 25.1272C9.2869 22.3913 12.919 18.8597 18.0844 17.0976C19.8832 21.772 20.6271 25.6895 20.8176 26.8136C16.6979 28.5684 11.7441 28.087 7.94857 25.1272ZM22.9716 25.6406C22.8402 24.8612 22.1583 21.1106 20.4825 16.5056C24.4974 15.8629 28.0249 16.9149 28.4632 17.0532C27.8921 20.6182 25.8459 23.697 22.9716 25.6406Z" fill="black"/>
</svg>
