<svg width="52" height="85" viewBox="0 0 52 85" fill="none" xmlns="http://www.w3.org/2000/svg">
<path d="M8.151 33.776H15.319V38H2.679V15.536H8.151V33.776Z" fill="#6700EE"/>
<path d="M17.7085 47.64C17.3032 46.8933 16.7165 46.328 15.9485 45.944C15.2018 45.5387 14.3165 45.336 13.2925 45.336C11.5218 45.336 10.1032 45.9227 9.0365 47.096C7.96983 48.248 7.4365 49.7947 7.4365 51.736C7.4365 53.8053 7.99117 55.4267 9.1005 56.6C10.2312 57.752 11.7778 58.328 13.7405 58.328C15.0845 58.328 16.2152 57.9867 17.1325 57.304C18.0712 56.6213 18.7538 55.64 19.1805 54.36H12.2365V50.328H24.1405V55.416C23.7352 56.7813 23.0418 58.0507 22.0605 59.224C21.1005 60.3973 19.8738 61.3467 18.3805 62.072C16.8872 62.7973 15.2018 63.16 13.3245 63.16C11.1058 63.16 9.12183 62.68 7.3725 61.72C5.6445 60.7387 4.28983 59.384 3.3085 57.656C2.3485 55.928 1.8685 53.9547 1.8685 51.736C1.8685 49.5173 2.3485 47.544 3.3085 45.816C4.28983 44.0667 5.6445 42.712 7.3725 41.752C9.1005 40.7707 11.0738 40.28 13.2925 40.28C15.9805 40.28 18.2418 40.9307 20.0765 42.232C21.9325 43.5333 23.1592 45.336 23.7565 47.64H17.7085Z" fill="#6700EE"/>
<path d="M38.5099 70.224C36.3979 70.224 34.4565 69.7333 32.6859 68.752C30.9365 67.7707 29.5392 66.4053 28.4939 64.656C27.4699 62.8853 26.9579 60.9013 26.9579 58.704C26.9579 56.5067 27.4699 54.5333 28.4939 52.784C29.5392 51.0347 30.9365 49.6693 32.6859 48.688C34.4565 47.7067 36.3979 47.216 38.5099 47.216C40.6219 47.216 42.5525 47.7067 44.3019 48.688C46.0725 49.6693 47.4592 51.0347 48.4619 52.784C49.4859 54.5333 49.9979 56.5067 49.9979 58.704C49.9979 60.9013 49.4859 62.8853 48.4619 64.656C47.4379 66.4053 46.0512 67.7707 44.3019 68.752C42.5525 69.7333 40.6219 70.224 38.5099 70.224ZM38.5099 65.232C40.3019 65.232 41.7312 64.6347 42.7979 63.44C43.8859 62.2453 44.4299 60.6667 44.4299 58.704C44.4299 56.72 43.8859 55.1413 42.7979 53.968C41.7312 52.7733 40.3019 52.176 38.5099 52.176C36.6965 52.176 35.2459 52.7627 34.1579 53.936C33.0912 55.1093 32.5579 56.6987 32.5579 58.704C32.5579 60.688 33.0912 62.2773 34.1579 63.472C35.2459 64.6453 36.6965 65.232 38.5099 65.232Z" fill="#8B8B8B"/>
<path d="M31.2299 44.224C29.1179 44.224 27.1765 43.7333 25.4059 42.752C23.6565 41.7707 22.2592 40.4053 21.2139 38.656C20.1899 36.8853 19.6779 34.9013 19.6779 32.704C19.6779 30.5067 20.1899 28.5333 21.2139 26.784C22.2592 25.0347 23.6565 23.6693 25.4059 22.688C27.1765 21.7067 29.1179 21.216 31.2299 21.216C33.3419 21.216 35.2725 21.7067 37.0219 22.688C38.7925 23.6693 40.1792 25.0347 41.1819 26.784C42.2059 28.5333 42.7179 30.5067 42.7179 32.704C42.7179 34.9013 42.2059 36.8853 41.1819 38.656C40.1579 40.4053 38.7712 41.7707 37.0219 42.752C35.2725 43.7333 33.3419 44.224 31.2299 44.224ZM31.2299 39.232C33.0219 39.232 34.4512 38.6347 35.5179 37.44C36.6059 36.2453 37.1499 34.6667 37.1499 32.704C37.1499 30.72 36.6059 29.1413 35.5179 27.968C34.4512 26.7733 33.0219 26.176 31.2299 26.176C29.4165 26.176 27.9659 26.7627 26.8779 27.936C25.8112 29.1093 25.2779 30.6987 25.2779 32.704C25.2779 34.688 25.8112 36.2773 26.8779 37.472C27.9659 38.6453 29.4165 39.232 31.2299 39.232Z" fill="#8B8B8B"/>
</svg>
