<svg width="28" height="28" viewBox="0 0 28 28" fill="none" xmlns="http://www.w3.org/2000/svg">
<path d="M13.559 7.08074C9.7122 7.08074 6.60937 10.1836 6.60937 14.0303C6.60937 17.8771 9.7122 20.9799 13.559 20.9799C17.4057 20.9799 20.5086 17.8771 20.5086 14.0303C20.5086 10.1836 17.4057 7.08074 13.559 7.08074ZM13.559 18.5485C11.0731 18.5485 9.04083 16.5223 9.04083 14.0303C9.04083 11.5384 11.067 9.5122 13.559 9.5122C16.0509 9.5122 18.0771 11.5384 18.0771 14.0303C18.0771 16.5223 16.0449 18.5485 13.559 18.5485ZM22.4138 6.79647C22.4138 7.69768 21.688 8.41744 20.7928 8.41744C19.8916 8.41744 19.1719 7.69163 19.1719 6.79647C19.1719 5.90131 19.8977 5.1755 20.7928 5.1755C21.688 5.1755 22.4138 5.90131 22.4138 6.79647ZM27.0166 8.44163C26.9138 6.27026 26.4178 4.34687 24.8271 2.7622C23.2424 1.17752 21.3191 0.68155 19.1477 0.572679C16.9098 0.445663 10.2021 0.445663 7.96421 0.572679C5.79889 0.675502 3.8755 1.17147 2.28478 2.75615C0.694053 4.34082 0.204133 6.26421 0.0952621 8.43558C-0.031754 10.6735 -0.031754 17.3811 0.0952621 19.619C0.198085 21.7904 0.694053 23.7138 2.28478 25.2985C3.8755 26.8832 5.79284 27.3791 7.96421 27.488C10.2021 27.615 16.9098 27.615 19.1477 27.488C21.3191 27.3852 23.2424 26.8892 24.8271 25.2985C26.4118 23.7138 26.9078 21.7904 27.0166 19.619C27.1437 17.3811 27.1437 10.6795 27.0166 8.44163ZM24.1255 22.0203C23.6537 23.2057 22.7404 24.1191 21.5489 24.5969C19.7646 25.3045 15.5307 25.1412 13.559 25.1412C11.5872 25.1412 7.34728 25.2985 5.56905 24.5969C4.38357 24.1251 3.47026 23.2118 2.99244 22.0203C2.28478 20.236 2.44808 16.0021 2.44808 14.0303C2.44808 12.0586 2.29083 7.81865 2.99244 6.04042C3.46421 4.85494 4.37752 3.94163 5.56905 3.46381C7.35333 2.75615 11.5872 2.91945 13.559 2.91945C15.5307 2.91945 19.7707 2.76219 21.5489 3.46381C22.7344 3.93558 23.6477 4.84889 24.1255 6.04042C24.8332 7.8247 24.6699 12.0586 24.6699 14.0303C24.6699 16.0021 24.8332 20.242 24.1255 22.0203Z" fill="black"/>
</svg>
