<svg width="26" height="35" viewBox="0 0 26 35" fill="none" xmlns="http://www.w3.org/2000/svg">
<path d="M6.21739 31.9375V21.736C5.65893 22.1352 5.09627 22.4585 4.53023 22.7034C2.37643 23.6354 -0.000947633 22.0269 2.83376e-07 19.6875C0.00054195 18.4149 0.737818 17.4861 1.96977 16.9531C3.88497 16.1245 6.32538 11.5768 7.20518 9.60217C7.74387 8.38147 8.93032 7.65714 10.1739 7.65639L21.7877 7.65625C22.5874 7.65625 23.2703 8.24387 23.3926 9.04183C23.8834 12.2436 25.9982 13.2637 25.9868 17.5C25.9863 17.6862 26 18.406 26 18.5937C26 22.0564 24.5022 24.1701 21.1749 23.5566C20.5454 24.8279 18.5014 25.6579 16.9557 24.6812C15.5218 26.3659 13.3064 26.2287 12.1522 25.1117V31.9375C12.1522 33.5884 10.7844 35 9.18477 35C7.60832 35 6.21739 33.5405 6.21739 31.9375ZM7.58333 4.92187V1.64062C7.58333 0.734521 8.31086 0 9.20833 0H22.2083C23.1058 0 23.8333 0.734521 23.8333 1.64062V4.92187C23.8333 5.82798 23.1058 6.5625 22.2083 6.5625H9.20833C8.31086 6.5625 7.58333 5.82798 7.58333 4.92187ZM21.9375 3.28125C21.9375 2.52615 21.3312 1.91406 20.5833 1.91406C19.8354 1.91406 19.2292 2.52615 19.2292 3.28125C19.2292 4.03635 19.8354 4.64844 20.5833 4.64844C21.3312 4.64844 21.9375 4.03635 21.9375 3.28125Z" fill="#FE00F4"/>
</svg>
